PathFileType	4	(X/Y/Z)	 s04c0302.trc
DataRate	CameraRate	NumFrames	NumMarkers	Units	OrigDataRate	OrigDataStartFrame	OrigNumFrames
200	200	5	50	mm	200	251	2000
Frame#	Time	racr			lacr			c7			jug			rlel			rdr			llel			ldr			s2			lic			ric			lasi			rasi			rpsi			lpsi			rgt			lgt			rth1			rth2			rth3			rth4			rlfc			rmfc			rsh1			rsh2			rsh3			rsh4			rlmal			rmmal			rcal			rtoe			rmt5			lth1			lth2			lth4			lth3			llfc			lmfc			lsh1			lsh2			lsh3			lsh4			llmal			lmmal			lcal			ltoe			lmt5			SBIKE			LBIKE			RBIKE			
		X1	Y1	Z1	X2	Y2	Z2	X3	Y3	Z3	X4	Y4	Z4	X5	Y5	Z5	X6	Y6	Z6	X7	Y7	Z7	X8	Y8	Z8	X9	Y9	Z9	X10	Y10	Z10	X11	Y11	Z11	X12	Y12	Z12	X13	Y13	Z13	X14	Y14	Z14	X15	Y15	Z15	X16	Y16	Z16	X17	Y17	Z17	X18	Y18	Z18	X19	Y19	Z19	X20	Y20	Z20	X21	Y21	Z21	X22	Y22	Z22	X23	Y23	Z23	X24	Y24	Z24	X25	Y25	Z25	X26	Y26	Z26	X27	Y27	Z27	X28	Y28	Z28	X29	Y29	Z29	X30	Y30	Z30	X31	Y31	Z31	X32	Y32	Z32	X33	Y33	Z33	X34	Y34	Z34	X35	Y35	Z35	X36	Y36	Z36	X37	Y37	Z37	X38	Y38	Z38	X39	Y39	Z39	X40	Y40	Z40	X41	Y41	Z41	X42	Y42	Z42	X43	Y43	Z43	X44	Y44	Z44	X45	Y45	Z45	X46	Y46	Z46	X47	Y47	Z47	X48	Y48	Z48	X49	Y49	Z49	X50	Y50	Z50	
251	1.2550	533.150378	1427.600581	-116.575131	554.385732	1423.536996	-379.782797	515.314932	1464.531381	-264.639743	522.897182	1316.828707	-256.543339	503.388052	1119.013025	-3.420733	705.791023	916.094519	-81.425091	532.623516	1147.457977	-510.461263	711.706015	917.073877	-445.345226	-33.433171	1190.865581	-274.368271	132.702403	1182.053515	-420.362979	125.691424	1167.764443	-107.688415	NaN	NaN	NaN	159.304918	1107.590864	-150.634720	3.303885	1226.164361	-227.724012	1.586890	1234.055807	-302.929931	63.945030	1113.256260	-93.418286	83.985767	1129.761571	-468.184299	138.414620	962.769903	-77.642302	193.871449	894.837624	-89.284649	210.628979	811.080160	-97.382615	222.869110	910.969957	-107.216785	258.127744	676.197918	-126.618902	229.744494	661.591915	-237.321529	189.956589	569.068861	-101.752567	168.560135	480.930014	-115.925939	106.318039	421.181469	-120.523600	196.097539	469.613083	-141.274718	43.021913	282.588531	-129.036020	64.207352	286.625338	-215.040559	-31.775128	262.005921	-170.283101	259.276255	190.034632	-152.026967	187.420585	179.272769	-99.034653	141.261812	1074.888151	-473.515624	226.780684	1064.466960	-477.796802	240.813140	1094.617480	-461.166749	297.621079	1011.200335	-489.744008	435.091413	925.901249	-470.339771	470.654327	907.846504	-361.971041	394.620602	818.052824	-487.609479	370.013721	737.575367	-462.015216	306.442686	675.671302	-455.357002	394.411219	728.965134	-432.758659	224.828090	556.569085	-437.589755	222.510282	562.424793	-349.531140	142.059700	540.800089	-393.076978	440.211883	503.241279	-402.746584	366.571203	471.161491	-463.382870	-177.225680	935.405775	-279.990177	-2.850960	86.106866	-485.035405	-15.046364	80.499990	-84.227499	
252	1.2600	533.162730	1427.551702	-116.617926	554.347416	1423.501910	-379.756016	515.290773	1464.535865	-264.609051	522.928844	1316.802628	-256.494709	503.424367	1119.025031	-3.379215	705.802107	916.077306	-81.460850	532.670537	1147.434846	-510.456907	711.708800	917.034527	-445.328201	-33.465389	1190.872116	-274.351551	132.689194	1182.074500	-420.339349	125.671333	1167.752396	-107.715649	NaN	NaN	NaN	159.277410	1107.570592	-150.624073	2.757783	1226.869376	-227.393579	1.536526	1234.058696	-302.892611	63.912591	1113.265659	-93.412471	83.945111	1129.746803	-468.185028	138.386321	962.761398	-77.645463	193.870767	894.838011	-89.277421	210.640125	811.099007	-97.371054	222.848684	910.988843	-107.209104	258.134847	676.200156	-126.630892	229.733183	661.616788	-237.330458	189.968636	569.071796	-101.760539	168.576365	480.909038	-115.927120	106.306020	421.223461	-120.490225	196.095167	469.609727	-141.284337	43.050398	282.584036	-129.038052	64.214708	286.614830	-215.038921	-31.756186	261.994225	-170.271689	259.301987	190.033423	-152.026962	187.455773	179.271910	-99.048029	141.210370	1074.889989	-473.515793	226.727570	1064.488791	-477.832832	240.764976	1094.626174	-461.189762	297.566760	1011.208220	-489.775598	435.034534	925.908257	-470.376427	470.613362	907.851811	-361.982057	394.580692	818.054929	-487.627866	369.985029	737.574587	-462.045447	306.391540	675.685087	-455.383428	394.377978	728.983753	-432.782139	224.777473	556.580961	-437.606304	222.493006	562.434273	-349.539051	142.032605	540.800193	-393.078939	440.176321	503.258552	-402.746688	366.554649	471.172318	-463.379753	-177.234662	935.394013	-279.994065	-2.849660	86.096174	-485.040688	-15.033863	80.484762	-84.217617	
253	1.2650	533.151618	1427.572836	-116.575414	554.299390	1423.478549	-379.738943	515.256803	1464.531593	-264.571021	522.925010	1316.799172	-256.447471	503.485406	1119.010388	-3.348627	705.819934	916.051232	-81.428235	532.687632	1147.422082	-510.463802	711.714832	917.020103	-445.323065	-33.494904	1190.860081	-274.336797	132.650579	1182.058736	-420.300896	125.637097	1167.739387	-107.692387	NaN	NaN	NaN	159.247650	1107.548033	-150.601530	3.194013	1226.195338	-227.671311	1.509870	1234.061386	-302.892315	63.892422	1113.258815	-93.397004	83.906965	1129.727795	-468.199418	138.348066	962.756380	-77.634990	193.850564	894.834565	-89.271356	210.651587	811.113904	-97.353007	222.821162	910.997973	-107.212749	258.133580	676.210091	-126.628142	229.714262	661.642757	-237.322963	189.986668	569.059583	-101.763536	168.628764	480.937512	-115.935848	106.364354	421.177491	-120.501374	196.145552	469.615867	-141.284631	43.070219	282.563253	-129.018114	64.233722	286.606310	-215.027038	-31.725405	261.987660	-170.263559	259.323822	190.015814	-152.017535	187.487368	179.261925	-99.033272	141.172870	1074.870489	-473.509196	226.691027	1064.474618	-477.836905	240.707838	1094.630923	-461.213923	297.531637	1011.218747	-489.799996	435.000488	925.917266	-470.400896	470.572712	907.859902	-362.020637	394.550404	818.046851	-487.642706	369.952905	737.584582	-462.062920	306.361235	675.687468	-455.397830	394.339911	728.973370	-432.795428	224.770056	556.576559	-437.597960	222.456638	562.446869	-349.542115	142.008423	540.805422	-393.075737	440.165438	503.279604	-402.756216	366.542180	471.170181	-463.365520	-177.233707	935.397785	-279.990739	-2.855394	86.098241	-485.030651	-15.033605	80.499724	-84.232013	
254	1.2700	533.151617	1427.572936	-116.575435	554.262822	1423.464094	-379.747390	515.223759	1464.526688	-264.550012	522.924247	1316.785443	-256.440385	503.539168	1119.040377	-3.312045	705.831014	916.034391	-81.463800	532.730337	1147.390916	-510.430606	711.718905	917.000915	-445.311719	-33.530879	1190.849730	-274.307764	132.616966	1182.065166	-420.272653	125.636011	1167.719395	-107.682871	NaN	NaN	NaN	159.218931	1107.525341	-150.592315	2.704830	1226.869658	-227.364836	1.472767	1234.065973	-302.867745	63.859417	1113.246610	-93.389362	83.876956	1129.702130	-468.207613	138.328997	962.738766	-77.619017	193.840295	894.835293	-89.279598	210.643841	811.122398	-97.336622	222.816476	911.000517	-107.229900	258.147704	676.219692	-126.642806	229.714272	661.642777	-237.322977	190.008023	569.057490	-101.764585	168.627867	480.892790	-115.931366	106.390363	421.173242	-120.516709	196.160007	469.622171	-141.313743	43.112308	282.569157	-129.020170	64.264808	286.599680	-215.023866	-31.684604	261.996235	-170.260382	259.361873	189.987122	-152.027076	187.512689	179.238366	-99.036636	141.126552	1074.869453	-473.521558	226.643096	1064.476388	-477.851103	240.676434	1094.615271	-461.219739	297.486029	1011.220058	-489.821382	434.971344	925.924459	-470.437613	470.555347	907.868986	-362.080852	394.532945	818.050308	-487.659719	369.915368	737.598117	-462.075202	306.327697	675.696736	-455.406157	394.315969	728.984265	-432.818819	224.740335	556.586895	-437.602743	222.415377	562.460151	-349.552849	141.973418	540.823830	-393.080754	440.137505	503.297605	-402.750619	366.512936	471.186478	-463.366547	-177.228971	935.386060	-279.981469	-2.856842	86.115248	-485.029914	-15.036368	80.503102	-84.228746	
255	1.2750	533.111770	1427.587791	-116.641338	554.233001	1423.456421	-379.742869	515.144357	1464.572816	-264.506436	522.939856	1316.770679	-256.409078	503.639452	1119.044632	-3.295179	705.824232	916.027464	-81.451423	532.758918	1147.384638	-510.424678	711.724016	916.978088	-445.279244	-33.576005	1190.855875	-274.302435	132.593805	1182.064164	-420.260282	125.587396	1167.704241	-107.654164	NaN	NaN	NaN	159.190507	1107.502819	-150.576547	3.160915	1226.171821	-227.655515	1.441898	1234.061963	-302.862926	63.833549	1113.235615	-93.391296	83.831914	1129.694828	-468.226170	138.315706	962.723161	-77.598731	193.836578	894.843661	-89.270307	210.667730	811.113449	-97.287979	222.794514	911.002754	-107.222207	258.176469	676.220094	-126.641029	229.760460	661.609308	-237.315611	190.056794	569.065241	-101.761243	168.666541	480.901550	-115.944285	106.431351	421.181413	-120.502029	196.178061	469.624511	-141.294189	43.133532	282.568837	-129.020144	64.312451	286.598354	-215.017024	-31.648720	262.001393	-170.265726	259.372470	189.989052	-152.024754	187.530070	179.233918	-99.043630	141.085615	1074.848082	-473.539770	226.601124	1064.481516	-477.857238	240.632080	1094.619510	-461.228819	297.444753	1011.227444	-489.845398	434.938159	925.936191	-470.474030	470.526276	907.885708	-362.102898	394.498218	818.063047	-487.696464	369.891137	737.613352	-462.096367	306.306647	675.702578	-455.426513	394.283983	729.010182	-432.849748	224.710327	556.610190	-437.607978	222.395560	562.478093	-349.579102	141.964154	540.833609	-393.074717	440.110767	503.307921	-402.749939	366.483997	471.208293	-463.378199	-177.238919	935.395421	-280.008602	-2.856746	86.101649	-485.024309	-15.060898	80.508579	-84.233047	
